<?xml version="1.0" encoding="utf-8"?>
<!-- Generator: Adobe Illustrator 16.0.0, SVG Export Plug-In . SVG Version: 6.00 Build 0)  -->
<!DOCTYPE svg PUBLIC "-//W3C//DTD SVG 1.1//EN" "http://www.w3.org/Graphics/SVG/1.1/DTD/svg11.dtd">
<svg version="1.1" id="Capa_1" xmlns="http://www.w3.org/2000/svg" xmlns:xlink="http://www.w3.org/1999/xlink" x="0px" y="0px"
	 width="984.099px" height="261px" viewBox="0 0 984.099 261" enable-background="new 0 0 984.099 261" xml:space="preserve">
<g>
	<g>
		<g>
			<polygon fill="#373737" points="357.835,188.014 348.13,188.014 341.839,188.014 341.839,214.996 341.839,225.126 
				336.292,225.126 336.292,214.996 336.292,188.014 330.693,188.014 320.455,188.014 320.508,186.734 357.835,186.734 			"/>
			<path fill="#373737" d="M386.253,186.734c3.627,0,6.559,0.215,8.798,0.906c2.239,0.641,4.106,1.6,5.493,3.092
				c1.387,1.547,2.078,3.359,2.078,5.494c0,2.452-0.906,4.639-2.718,6.344c-1.866,1.762-4.533,3.148-8.052,3.627
				c1.546,0.746,4.104,1.76,7.624,6.505c0,0,2.827,3.842,6.346,12.425h-4.372c-0.426-1.758-6.079-18.236-16.477-18.236h-1.652v8.053
				v10.184h-5.44v-10.184v-18.559v-9.65H386.253z M387.8,205.611c1.492,0,2.772-0.534,3.839-0.853
				c1.12-0.319,2.026-1.067,2.666-1.708c0.693-0.64,1.228-1.492,1.6-2.506c0.427-1.066,0.587-2.293,0.587-3.785
				c0-2.668-0.641-4.693-1.973-6.293c-1.334-1.599-4.373-2.134-8.799-2.134h-2.398v17.278H387.8z"/>
			<path fill="#373737" d="M448.158,211.048h-14.13l-5.387,14.078h-2.025l15.891-38.393h1.119l16.318,38.393h-6.027
				c-2.025-4.96-2.879-7.038-2.879-7.038L448.158,211.048z M447.679,209.769l-6.719-16.104l-6.559,16.104H447.679z"/>
			<path fill="#373737" d="M481.163,186.734h10.557c5.6,0,10.025,0.854,13.171,2.612c3.147,1.706,5.493,3.999,7.04,6.986
				c1.546,2.933,2.346,6.292,2.346,10.185c0,2.773-0.426,5.332-1.28,7.625c-0.853,2.293-1.972,4.212-3.466,5.707
				c-1.439,1.545-3.146,2.719-5.118,3.518c-1.92,0.801-3.733,1.279-5.493,1.442c-1.706,0.212-4.159,0.317-7.305,0.317h-10.451
				V186.734z M492.521,223.847c3.306,0,6.025-0.48,8.158-1.387s3.946-2.666,5.332-5.331c1.44-2.667,2.188-6.081,2.188-10.187
				c0-3.252-0.428-6.078-1.281-8.638c-0.799-2.506-2.026-4.531-3.572-6.133c-1.547-1.599-3.252-2.665-5.119-3.252
				c-1.919-0.533-4.319-0.854-7.252-0.854c-1.439,0-3.039,0.053-4.318,0.161v35.619H492.521z"/>
			<polygon fill="#373737" points="542.054,186.734 542.054,196.28 542.054,215.156 542.054,225.126 536.509,225.126 
				536.509,215.156 536.509,196.28 536.509,186.734 			"/>
			<polygon fill="#373737" points="594.098,186.734 594.098,193.878 594.098,225.126 593.084,225.126 566.156,189.773 
				566.156,215.795 566.156,224.167 564.93,224.167 564.93,215.795 564.93,195.906 564.93,186.734 570.688,186.734 592.498,215.902 
				592.498,193.452 592.498,186.734 			"/>
			<path fill="#373737" d="M643.846,208.755h5.331v6.081c0,2.293-0.959,4.478-2.719,5.918c-1.28,1.12-2.771,2.24-3.785,2.612
				c-3.147,1.173-5.973,1.76-8.64,1.76c-5.278,0-9.705-1.76-13.224-5.226c-3.467-3.466-5.227-7.891-5.227-13.277
				c0-5.278,1.653-9.917,5.014-13.918c3.359-3.999,7.891-5.972,13.597-5.972c4.906,0,9.013,1.76,12.158,5.332v0.159l-1.226,1.281
				c-0.534-0.746-1.121-1.493-1.813-2.08c-2.347-2.239-5.173-3.359-8.532-3.359c-3.52,0-6.506,1.279-9.119,3.893
				c-2.56,2.559-3.892,7.145-3.892,13.759c0,6.558,1.28,11.196,3.785,13.972c2.453,2.718,5.546,4.104,9.279,4.104
				c1.866,0,3.572-0.372,5.119-1.173c1.546-0.746,2.56-1.706,3.092-2.824c0.587-1.12,0.801-2.508,0.801-4.214V208.755z"/>
			<path fill="#373737" d="M748.299,208.755h5.331v6.081c0,2.293-0.958,4.478-2.718,5.918c-1.28,1.12-2.774,2.24-3.786,2.612
				c-3.146,1.173-5.973,1.76-8.639,1.76c-5.279,0-9.705-1.76-13.225-5.226c-3.466-3.466-5.226-7.891-5.226-13.277
				c0-5.278,1.653-9.917,5.013-13.918c3.36-3.999,7.892-5.972,13.598-5.972c4.905,0,9.012,1.76,12.157,5.332v0.159l-1.226,1.281
				c-0.534-0.746-1.121-1.493-1.813-2.08c-2.347-2.239-5.172-3.359-8.532-3.359c-3.52,0-6.506,1.279-9.118,3.893
				c-2.56,2.559-3.893,7.145-3.893,13.759c0,6.558,1.28,11.196,3.785,13.972c2.453,2.718,5.547,4.104,9.279,4.104
				c1.866,0,3.572-0.372,5.119-1.173c1.546-0.746,2.56-1.706,3.092-2.824c0.588-1.12,0.801-2.508,0.801-4.214V208.755z"/>
			<path fill="#373737" d="M782.744,186.734c3.625,0,6.558,0.215,8.798,0.906c2.239,0.641,4.106,1.6,5.492,3.092
				c1.387,1.547,2.08,3.359,2.08,5.494c0,2.452-0.906,4.639-2.72,6.344c-1.867,1.762-4.533,3.148-8.052,3.627
				c1.547,0.746,4.106,1.76,7.625,6.505c0,0,2.826,3.842,6.346,12.425h-4.372c-0.427-1.758-6.08-18.236-16.479-18.236h-1.652v8.053
				v10.184h-5.438v-10.184v-18.559v-9.65H782.744z M784.29,205.611c1.493,0,2.773-0.534,3.839-0.853
				c1.12-0.319,2.026-1.067,2.667-1.708c0.692-0.64,1.227-1.492,1.6-2.506c0.427-1.066,0.586-2.293,0.586-3.785
				c0-2.668-0.64-4.693-1.973-6.293c-1.333-1.599-4.373-2.134-8.798-2.134h-2.4v17.278H784.29z"/>
			<path fill="#373737" d="M825.721,191.907c3.839-3.466,7.306-5.172,13.064-5.172c5.758,0,9.331,1.706,13.171,5.118
				c3.892,3.413,5.812,8.104,5.812,14.023c0,5.76-1.865,10.398-5.545,13.918c-3.732,3.572-7.306,5.332-13.384,5.332
				c-5.867,0-9.439-1.76-13.225-5.332c-3.733-3.52-5.652-8.266-5.652-14.131C819.962,199.958,821.881,195.373,825.721,191.907
				 M829.772,219.261c2.399,2.985,4.693,4.479,9.439,4.479c4.212,0,6.878-1.494,9.278-4.479c2.398-2.986,2.985-7.412,2.985-13.33
				c0-5.759-0.533-10.187-2.933-13.226c-2.399-3.092-5.226-4.586-9.758-4.586c-4.426,0-6.613,1.494-9.013,4.479
				c-2.346,2.987-3.519,7.412-3.519,13.277C826.254,211.849,827.427,216.275,829.772,219.261"/>
			<path fill="#373737" d="M910.342,186.734v9.011v12.639c0,3.2-0.32,5.599-0.586,7.199c-0.268,1.547-1.174,3.092-2.399,4.584
				c-1.173,1.495-2.879,2.722-5.066,3.627c-2.187,0.907-4.692,1.333-7.518,1.333c-3.414,0-6.239-0.587-8.586-1.705
				c-2.293-1.175-3.946-2.667-4.905-4.479c-1.013-1.813-1.601-4.267-1.387-7.306l0.267-3.893v-11.785v-9.225h5.438v9.225v11.944
				c0,4.107-0.052,7.04,0.32,8.798c0.427,1.761,1.28,3.253,3.04,4.534c1.76,1.333,4.159,1.973,7.092,1.973
				c2.293,0,4.426-0.426,6.346-1.333c1.867-0.854,3.358-1.921,4.266-3.2c0.906-1.332,1.6-2.665,1.813-4.052
				c0.214-1.333,0.534-3.52,0.534-6.452v-12.904v-8.532H910.342z"/>
			<path fill="#373737" d="M940.094,186.734c3.945,0,6.986,0.428,9.118,1.067c2.079,0.586,3.84,1.813,5.227,3.357
				c1.332,1.602,2.025,3.521,2.025,5.92c0,2.08-0.479,3.893-1.386,5.439c-0.96,1.601-2.293,2.719-4,3.52
				c-1.759,0.853-4.799,1.012-9.172,1.012h-4.105v8.479c0,1.653-0.054,2.507,0,3.786v5.813h-5.492v-9.599v-18.662v-10.132H940.094z
				 M950.492,197.505c0-3.146-0.747-5.493-2.294-6.932c-1.545-1.493-4.053-2.241-7.518-2.241c-1.28,0-2.24,0.055-2.88,0.108v17.329
				h2.667c2.186,0,3.946-0.052,5.278-0.479c1.387-0.429,2.506-1.173,3.413-2.613C950.064,201.291,950.492,199.531,950.492,197.505"
				/>
		</g>
		<g>
			<path fill="#2970CA" d="M402.005,34.883c-11.084-6.064-26.158-8.836-44.695-8.836c0,0-5.889,0-38.114-0.173v132.707h37.767
				c10.396,0,18.537-0.346,24.258-1.04c6.062-0.69,12.299-2.424,18.883-5.196c6.755-2.771,12.82-6.756,17.844-12.126
				c5.197-5.372,9.182-12.128,12.127-20.099c2.947-7.968,4.331-16.63,4.331-25.988c0-13.164-2.599-24.774-7.97-34.993
				C421.064,48.916,412.923,40.773,402.005,34.883 M400.448,126.705c-4.505,8.143-9.701,13.167-15.419,15.593
				c-6.409,2.771-14.554,4.156-25.122,4.156h-15.244V38.349c3.291-0.174,6.932-0.174,10.221-0.174
				c9.355,0,16.806,0.866,22.349,2.598c5.372,1.559,10.396,4.679,15.073,9.53c4.504,4.503,8.143,10.74,10.742,18.362
				c2.599,7.798,3.81,16.633,3.81,26.854C406.857,108.514,404.604,118.733,400.448,126.705"/>
			<polygon fill="#2970CA" points="468.702,60.872 468.702,122.199 468.702,158.582 494.344,158.582 494.344,122.199 
				494.344,60.872 494.344,26.047 468.702,26.047 			"/>
			<path fill="#2970CA" d="M622.544,55.154c-1.037,2.944-2.426,6.584-4.157,10.742l-24.428,58.903l-31.53-72.766l-11.783-25.986
				H524.14l8.489,19.75c0.693,1.385,1.561,3.292,2.253,5.024c1.039,2.6,1.904,4.68,2.599,6.236l1.212,2.6l43.14,98.924h10.565
				l37.25-88.528l18.71-44.006h-14.378L622.544,55.154z"/>
			<polygon fill="#2970CA" points="678.151,60.872 678.151,122.199 678.151,158.582 703.794,158.582 703.794,122.199 
				703.794,60.872 703.794,26.047 678.151,26.047 			"/>
			<path fill="#2970CA" d="M803.928,91.018c-4.504-3.292-11.608-7.798-21.483-13.689c-10.048-5.889-16.631-10.739-19.75-14.551
				c-3.119-3.465-4.329-7.276-3.813-11.61c0.347-3.466,1.908-6.754,5.025-9.528c2.598-2.424,6.758-3.812,13.168-3.118
				c6.41,0.694,11.78,3.466,16.113,8.661c1.211,1.215,2.077,2.6,5.369,7.798l10.047-8.314c-6.407-8.838-11.086-13.342-16.11-15.769
				c-4.678-2.25-9.874-3.809-15.245-4.33c-9.876-1.04-18.71,1.212-25.986,6.757c-7.451,5.718-11.61,13.517-12.647,23.042
				c-0.693,6.064,0.174,12.128,2.77,18.017c2.427,5.72,6.063,10.742,11.09,14.727c4.851,3.813,11.779,8.144,20.964,13.342
				c10.22,5.718,16.457,10.395,19.577,14.204c2.941,3.64,4.156,7.798,3.637,12.82c-0.521,4.853-2.773,9.01-7.277,12.648
				c-4.157,3.466-9.875,5.198-17.151,4.158c-11.087-1.734-17.324-6.236-28.932-23.039l-8.663,9.354
				c9.011,14.725,24.947,24.427,37.769,25.813c12.127,1.386,22.521-0.868,31.01-7.278c8.317-6.41,13.168-15.247,14.381-26.332
				c0.691-7.103-0.173-13.515-2.771-19.577C812.591,99.504,808.776,94.653,803.928,91.018"/>
			<path fill="#2970CA" d="M899.556,26.047h-8.66l-54.748,132.534h14.899l17.672-45.909h40.364l8.492,20.616
				c0,0,2.944,6.583,10.395,25.293h28.064L899.556,26.047z M873.051,100.89l15.418-38.286l15.938,38.286H873.051z"/>
		</g>
	</g>
	<path fill="#87868A" d="M284.634,25.875c0,0,0.089,3.271,0.245,8.996c0.107,5.723,0.333,13.899,0.476,23.713
		c0.066,4.906,0.14,10.221,0.217,15.843c0.055,5.621,0.111,11.55,0.169,17.683c0.035,6.133,0.072,12.471,0.109,18.91
		c0.015,6.438,0.028,12.981,0.044,19.522c-0.015,6.541-0.029,13.083-0.043,19.522c-0.036,6.439-0.072,12.775-0.107,18.909
		c-0.088,12.266-0.223,23.715-0.386,33.526c-0.14,9.813-0.37,17.989-0.478,23.713c-0.156,5.725-0.246,8.996-0.246,8.996
		s-0.088-3.271-0.244-8.996c-0.107-5.724-0.338-13.9-0.479-23.713c-0.163-9.812-0.298-21.261-0.387-33.526
		c-0.034-6.134-0.07-12.47-0.106-18.909c-0.014-6.439-0.028-12.981-0.042-19.522c0.015-6.541,0.029-13.084,0.043-19.522
		c0.037-6.439,0.074-12.777,0.109-18.91c0.059-6.133,0.115-12.062,0.169-17.683c0.077-5.622,0.15-10.937,0.218-15.843
		c0.142-9.813,0.367-17.99,0.475-23.713C284.546,29.146,284.634,25.875,284.634,25.875"/>
	<g>
		<g>
			<defs>
				<path id="SVGID_7_" d="M109.33,25.792l27.722,27.727L119.86,70.636l-14.662-14.312H43.246c-8.583,0-16.947,5.961-16.012,18.779
					v60.657L40.795,149.4l-7.534,7.535c-0.627,1.615-0.98,3.369-0.98,5.209c0,7.933,6.393,14.367,14.279,14.367
					c1.994,0,3.893-0.416,5.618-1.158c-0.875,1.858-1.376,3.927-1.376,6.12c0,7.934,6.396,14.364,14.281,14.364
					c1.762,0,3.439-0.337,4.998-0.922c-0.709,1.704-1.104,3.574-1.104,5.535c0,7.935,6.395,14.367,14.283,14.367
					c2.387,0,4.629-0.596,6.607-1.637c-0.623,1.615-0.982,3.365-0.982,5.206c0,7.934,6.396,14.367,14.283,14.367
					c2.198,0,4.279-0.505,6.14-1.397l2.292-2.293l0.19,0.188l4.076-4.076l5.976,5.57c5.953,5.987,16.234,4.694,22.19-1.294
					c3.737-3.762,5.124-8.989,4.167-13.841c4.878,1.037,10.156-0.34,13.944-4.148c3.571-3.592,4.982-8.52,4.272-13.181
					c5.18,1.535,11.008,0.246,15.094-3.864c3.96-3.983,5.271-9.609,3.963-14.693c5.308,1.787,11.396,0.57,15.623-3.683
					c5.954-5.985,5.954-15.695,0-21.685l-7.184-7.226l18.378-18.375l37.099,37.099V25.792H109.33z"/>
			</defs>
			<clipPath id="SVGID_2_">
				<use xlink:href="#SVGID_7_"  overflow="visible"/>
			</clipPath>
			
				<linearGradient id="SVGID_3_" gradientUnits="userSpaceOnUse" x1="-2971.2861" y1="1010.1172" x2="-2970.4463" y2="1010.1172" gradientTransform="matrix(-271.4864 268.4866 268.4866 271.4864 -1077631.625 523552.5)">
				<stop  offset="0" style="stop-color:#5297DB"/>
				<stop  offset="1" style="stop-color:#3160C4"/>
			</linearGradient>
			<polygon clip-path="url(#SVGID_2_)" fill="url(#SVGID_3_)" points="354.854,132.434 136.604,348.273 -79.166,130.09 
				139.083,-85.747 			"/>
		</g>
		<polygon fill="#003FA2" points="103.765,221.158 99.735,217.129 212.291,104.573 232.292,124.574 232.292,42.891 150.609,42.891 
			161.239,53.523 48.685,166.078 44.653,162.047 153.179,53.523 136.849,37.191 237.991,37.191 237.991,138.334 212.291,112.635 		
			"/>
		<polygon fill="#003FA2" points="101.073,223.385 41.96,164.275 155.896,50.757 159.925,54.79 50.021,164.275 101.073,215.325 
			208.962,107.865 212.99,111.897 		"/>
		<path fill="#003FA2" d="M101.089,219.373l-14.986-14.699c3.943-4.023,9.351-6.292,14.986-6.292c5.635,0,11.041,2.269,14.988,6.295
			L101.089,219.373z"/>
		<path fill="#003FA2" d="M45.99,164.275l14.87-14.816c3.918,3.932,6.123,9.266,6.123,14.816c0,5.656-2.289,11.08-6.34,15.03
			L45.99,164.275z"/>
		<path fill="#003FA2" d="M149.821,152.995c-10.596,10.597-27.773,10.597-38.368,0c-10.595-10.594-10.595-27.771,0-38.363
			c10.595-10.595,27.772-10.595,38.368,0C160.413,125.224,160.413,142.401,149.821,152.995"/>
		<path fill-rule="evenodd" clip-rule="evenodd" fill="#EDEEF0" d="M120.267,148.295c-1.027,1.023-2.156,2.152-3.325,3.323
			c-1.22-1.219-2.397-2.397-3.649-3.651c1.158-1.157,2.332-2.334,3.403-3.403c-1.106-2.025-2.216-3.889-3.162-5.834
			c-0.944-1.945-1.479-4.037-1.79-6.284c2.29-0.432,4.559-0.861,6.811-1.287c0.359,1.533,0.612,3.042,1.076,4.482
			c0.468,1.438,1.146,2.81,1.787,4.34c2.043-2.04,3.922-3.92,5.764-5.761c-0.713-1.56-1.495-3.072-2.103-4.651
			c-1.075-2.792-1.394-5.634,0.269-8.319c3.386-5.476,8.703-6.68,14.246-3.531c0.779,0.442,1.505,0.984,2.342,1.538
			c0.631-0.63,1.294-1.292,1.986-1.984c1.248,1.25,2.43,2.429,3.676,3.678c-0.717,0.718-1.415,1.415-2.133,2.134
			c2.137,2.812,3.467,5.879,4.066,9.346c-2.203,0.603-4.391,1.197-6.6,1.801c-0.489-2.288-1.132-4.463-2.327-6.513
			c-0.184,0.146-0.343,0.251-0.476,0.382c-1.511,1.504-3.002,3.024-4.531,4.508c-0.382,0.369-0.404,0.641-0.15,1.086
			c1.07,1.874,1.961,3.828,2.461,5.943c0.92,3.881-0.375,7.018-3.289,9.539c-2.863,2.477-6.166,2.909-9.635,1.566
			C123.391,150.125,121.929,149.169,120.267,148.295 M124.845,143.441c2.111,1.743,4.375,1.487,5.463-0.607
			c0.788-1.516,0.1-2.895-0.481-4.373C128.122,140.165,126.503,141.783,124.845,143.441 M137.48,123.97
			c-1.521-1.369-3.202-1.507-4.484-0.39c-1.463,1.275-1.578,3.239-0.284,5.155C134.288,127.163,135.86,125.591,137.48,123.97"/>
		<path fill="#EDEEF0" d="M46.13,62.286h23.389h0.66h14.746h19.325l24.786,24.93c5.136,5.167,5.136,13.546,0,18.714
			c-5.139,5.169-13.468,5.169-18.606,0L97.392,92.816l-53.06,53.367l-11.409-11.476v-19.451V75.567
			C32.923,68.233,38.837,62.286,46.13,62.286"/>
		<path fill="#EDEEF0" d="M127.38,195.247l0.151,0.154c-4.811-5.114-4.735-13.175,0.243-18.185
			c4.349-4.374,11.014-4.978,16.019-1.842c-3.398-5.191-2.829-12.242,1.711-16.811c5.194-5.227,13.616-5.227,18.812,0l0.156,0.157
			c-4.932-5.245-4.857-13.509,0.248-18.646c3.713-3.731,9.065-4.784,13.719-3.181l13.949,14.027l3.814,3.839
			c0.066,0.102,0.127,0.211,0.191,0.316l4.688,4.712c1.397,4.582,0.302,9.767-3.301,13.392c-5.196,5.224-13.617,5.224-18.813,0
			l-0.158-0.157c4.936,5.242,4.86,13.509-0.246,18.646c-4.672,4.697-11.942,5.156-17.141,1.405
			c2.924,5.003,2.269,11.536-2.002,15.832c-5.064,5.093-13.274,5.093-18.344,0l-0.146-0.149c4.807,5.112,4.73,13.17-0.246,18.178
			c-3.73,3.751-9.165,4.729-13.793,2.955l-20.861-20.983c-1.658-4.611-0.666-9.963,3.007-13.66
			C114.102,190.154,122.313,190.154,127.38,195.247"/>
	</g>
</g>
</svg>
